yy<svg xmlns="http://www.w3.org/2000/svg" xmlns:xlink="http://www.w3.org/1999/xlink" width="500" zoomAndPan="magnify" viewBox="0 0 375 374.999991" height="500" preserveAspectRatio="xMidYMid meet" version="1.0"><path fill="#fefefe" d="M 192.050781 162.695312 L 170.582031 162.695312 C 169.433594 167.988281 168.859375 174.34375 168.859375 181.773438 L 168.859375 183.832031 C 168.859375 186.375 168.269531 187.648438 167.097656 187.648438 C 164.160156 187.648438 161.960938 184.125 160.492188 177.078125 C 159.359375 171.644531 158.664062 166.847656 158.40625 162.695312 L 146.546875 162.695312 C 135.390625 183.832031 122.476562 209.957031 107.796875 241.074219 C 107.210938 242.835938 106.28125 245.234375 105.007812 248.265625 C 103.738281 251.300781 100.996094 256.976562 96.789062 265.292969 C 92.582031 273.613281 88.175781 281.390625 83.578125 288.632812 C 78.980469 295.875 73.253906 303.457031 66.40625 311.382812 C 59.554688 319.308594 52.609375 325.425781 45.5625 329.730469 C 43.800781 330.90625 42.234375 331.492188 40.867188 331.492188 C 38.910156 331.492188 37.929688 330.21875 37.929688 327.675781 C 37.929688 326.109375 38.222656 324.152344 38.808594 321.804688 C 39.398438 319.457031 39.984375 317.5 40.570312 315.933594 L 41.453125 313.878906 C 50.847656 290.785156 77.660156 240.488281 121.886719 162.988281 L 109.558594 162.988281 C 106.625 162.988281 105.15625 162.105469 105.15625 160.34375 C 105.15625 158.976562 105.890625 157.652344 107.355469 156.382812 C 108.824219 155.109375 110.339844 154.472656 111.90625 154.472656 L 126.878906 154.472656 L 155.941406 104.863281 C 160.640625 96.25 162.988281 88.8125 162.988281 82.550781 C 162.988281 79.421875 162.398438 76.828125 161.226562 74.773438 C 160.050781 72.71875 158.976562 71.394531 157.996094 70.808594 L 156.234375 69.929688 C 154.472656 68.949219 153.59375 67.871094 153.59375 66.699219 C 153.59375 65.71875 154.132812 64.886719 155.207031 64.203125 C 156.285156 63.519531 157.214844 63.175781 157.996094 63.175781 C 177.761719 62 198.3125 61.414062 219.644531 61.414062 C 237.453125 61.414062 251.839844 61.902344 262.796875 62.882812 C 265.929688 62.882812 267.496094 64.15625 267.496094 66.699219 C 267.496094 67.675781 267.203125 68.753906 266.613281 69.929688 C 259.765625 85.976562 253.207031 98.695312 246.945312 108.089844 C 246.359375 109.070312 245.183594 109.558594 243.421875 109.558594 C 241.859375 109.558594 241.074219 108.382812 241.074219 106.035156 C 242.445312 101.925781 243.128906 97.425781 243.128906 92.53125 C 243.128906 77.265625 235.300781 69.632812 219.644531 69.632812 C 208.683594 69.632812 201.152344 72.375 197.039062 77.855469 C 186.667969 90.96875 171.304688 116.507812 150.953125 154.472656 C 153.070312 154.472656 155.589844 154.464844 158.507812 154.449219 C 159.089844 148.316406 160.828125 142.746094 163.722656 137.742188 C 167.339844 131.476562 172.96875 128.347656 180.601562 128.347656 C 195.671875 128.347656 210.152344 137.152344 224.046875 154.769531 C 235.789062 141.066406 248.363281 127.222656 261.769531 113.226562 C 275.175781 99.234375 285.597656 88.714844 293.035156 81.671875 L 304.191406 70.808594 C 316.324219 52.609375 326.304688 43.507812 334.132812 43.507812 C 336.089844 43.507812 337.070312 44.386719 337.070312 46.148438 C 337.070312 47.324219 336.679688 48.695312 335.894531 50.257812 C 318.671875 84.117188 302.917969 122.28125 288.632812 164.75 C 270.625 218.765625 261.625 260.15625 261.625 288.925781 C 261.625 297.929688 262.699219 304.484375 264.851562 308.59375 C 265.636719 309.574219 266.027344 310.550781 266.027344 311.53125 C 266.027344 312.898438 264.851562 313.585938 262.503906 313.585938 C 257.222656 313.585938 252.816406 312.265625 249.292969 309.621094 C 245.773438 306.980469 243.277344 303.503906 241.808594 299.199219 C 240.339844 294.894531 239.3125 291.03125 238.726562 287.605469 C 238.140625 284.179688 237.84375 280.707031 237.84375 277.183594 C 237.84375 271.3125 238.921875 262.601562 241.074219 251.054688 C 243.226562 239.507812 244.304688 231.09375 244.304688 225.808594 C 244.304688 217.980469 242.589844 208.734375 239.167969 198.066406 C 235.742188 187.402344 231.191406 177.664062 225.515625 168.859375 C 219.253906 177.46875 213.527344 186.082031 208.34375 194.691406 C 203.15625 203.304688 199.488281 209.664062 197.332031 213.773438 L 194.398438 220.230469 C 187.351562 234.714844 180.40625 247.925781 173.554688 259.863281 C 166.707031 271.800781 161.617188 280.117188 158.289062 284.816406 L 153.300781 291.566406 C 151.148438 294.113281 149.191406 295.382812 147.429688 295.382812 C 145.277344 295.382812 144.199219 293.132812 144.199219 288.632812 C 144.785156 261.039062 169.835938 218.273438 219.351562 160.34375 C 209.761719 148.796875 199.878906 143.023438 189.703125 143.023438 C 182.195312 143.023438 176.714844 146.796875 173.265625 154.335938 L 174.289062 154.328125 C 184.5625 154.230469 192.148438 154.179688 197.039062 154.179688 C 198.605469 154.179688 199.585938 154.375 199.976562 154.769531 C 200.171875 154.964844 200.269531 155.257812 200.269531 155.648438 C 200.269531 157.019531 199.4375 158.484375 197.773438 160.050781 C 196.113281 161.617188 194.203125 162.5 192.050781 162.695312 Z M 290.394531 96.9375 C 268.863281 115.722656 248.707031 137.742188 229.917969 162.988281 C 238.140625 175.511719 244.5 189.800781 249 205.847656 C 249.589844 207.609375 250.078125 208.488281 250.46875 208.488281 L 251.9375 205.847656 C 256.828125 189.210938 262.75 171.941406 269.699219 154.035156 C 276.644531 136.125 282.371094 122.378906 286.871094 112.789062 L 293.621094 98.695312 C 294.210938 97.523438 294.503906 96.738281 294.503906 96.347656 C 294.503906 95.957031 294.210938 95.761719 293.621094 95.761719 Z M 290.394531 96.9375 " fill-opacity="1" fill-rule="nonzero"/></svg>